<?xml version="1.0" encoding="utf-8"?>
<!-- Generator: Adobe Illustrator 22.1.0, SVG Export Plug-In . SVG Version: 6.00 Build 0)  -->
<svg version="1.1" id="Layer_1" xmlns="http://www.w3.org/2000/svg" xmlns:xlink="http://www.w3.org/1999/xlink" x="0px" y="0px"
	 viewBox="0 0 22.8 22.8" style="enable-background:new 0 0 22.8 22.8;" xml:space="preserve">
<title>info</title>
<path d="M11.4,2.2c5.1,0,9.1,4.1,9.1,9.1s-4.1,9.1-9.1,9.1s-9.1-4.1-9.1-9.1c0,0,0,0,0,0C2.3,6.3,6.3,2.3,11.4,2.2 M11.4,0
	C5.1,0,0,5.1,0,11.4s5.1,11.4,11.4,11.4s11.4-5.1,11.4-11.4l0,0C22.8,5.1,17.7,0,11.4,0C11.4,0,11.4,0,11.4,0z"/>
<path d="M11.4,7.5c-1,0-1.8-0.8-1.8-1.8s0.8-1.8,1.8-1.8c0,0,0,0,0,0c1,0,1.8,0.8,1.8,1.8S12.4,7.5,11.4,7.5
	C11.4,7.5,11.4,7.5,11.4,7.5z M10,8.9l2.9-0.1v9.9H10V8.9z"/>
</svg>
