<?xml version="1.0" encoding="utf-8"?>
<!-- Generator: Adobe Illustrator 21.1.0, SVG Export Plug-In . SVG Version: 6.00 Build 0)  -->
<svg version="1.1" xmlns="http://www.w3.org/2000/svg" xmlns:xlink="http://www.w3.org/1999/xlink" x="0px" y="0px"
	 viewBox="0 0 198 63.36" style="enable-background:new 0 0 198 63.36;" xml:space="preserve">
<style type="text/css">
	.st0{display:none;}
	.st1{fill:none;stroke:#EF3E42;stroke-width:0.9;stroke-linecap:square;}
	.st2{fill:#EF3E42;stroke:#EF3E42;stroke-width:0.23;}
</style>
<g id="Layer_2" class="st0">
</g>
<g id="_x37_a8221fe-2033-4808-84b8-5030b12a901e">
	<title>logo_white</title>
	<line class="st1" x1="53.93081" y1="51.55109" x2="193.92464" y2="51.55109"/>
	<path d="M158.82857,55.78665c0.33043-1.28168-0.51068-1.7523-1.00131-1.7523h-3.76495l-1.85245,7.16942h3.15414
		c1.31172,0,2.38313-0.34044,2.78365-1.9025c0.25034-1.00131-0.12015-1.65217-0.84109-1.7523l0,0
		C158.10829,57.29958,158.69855,56.61614,158.82857,55.78665z M156.40538,59.00087
		c-0.20029,0.77101-0.72095,0.78102-1.26167,0.78102h-0.76102l0.39053-1.522h0.79105
		C156.08495,58.2599,156.56558,58.2599,156.40538,59.00087z M156.95609,55.99693c-0.23032,0.89117-0.83109,0.83109-1.34177,0.83109
		h-0.49063l0.36046-1.41186h0.64085c0.44058,0.02003,0.98131,0.02003,0.83112,0.6008L156.95609,55.99693z"/>
	<path d="M178.18398,54.03435h-3.40446l-1.8224,7.16942h3.00394c2.07274,0,3.45456-1.49195,4.00526-3.57469
		C180.70728,54.58508,179.06514,54.03435,178.18398,54.03435z M178.04378,57.59903
		c-0.27036,1.00131-1.00131,2.00263-2.06271,2.00263h-0.82108l1.00131-4.08537h0.95126
		c1.05139,0.05008,1.27168,0.76101,0.93124,2.08274L178.04378,57.59903z"/>
	<path d="M56.58429,54.03435h-3.40446l-1.8224,7.16942h3.00394c2.07273,0,3.45453-1.49195,4.00526-3.57469
		C59.10761,54.58508,57.43541,54.03435,56.58429,54.03435z M56.4341,57.59904c-0.27036,1.00131-1.00132,2.00263-2.06271,2.00263
		h-0.82109l1.00132-4.08537h0.95124C56.56427,55.56637,56.78456,56.2773,56.4341,57.59904z"/>
	<polygon points="185.53362,56.81801 185.14311,58.35002 182.61981,58.35002 182.28937,59.64172 185.28329,59.65173 
		184.89278,61.18374 180.00638,61.17373 181.82875,54.02434 186.72519,54.03435 186.33467,55.56637 183.33073,55.56637 
		183.02032,56.81801 	"/>
	<polygon points="122.76119,54.02434 124.65368,54.02434 123.97279,56.68784 126.38596,56.68784 127.05684,54.03435 
		128.95934,54.03435 127.12693,61.18374 125.23444,61.17373 125.99545,58.21985 123.58228,58.21985 122.83128,61.17373 
		120.9388,61.17373 	"/>
	<polygon points="113.23869,54.02434 115.13118,54.03435 113.30878,61.17373 111.4163,61.17373 	"/>
	<path d="M187.82664,54.02434h3.2142c1.59209,0,2.00264,0.761,1.64218,2.18287c-0.25375,0.86411-0.92261,1.54421-1.78235,1.81238
		c0.17024,1.07141,0.31041,2.19288,0.51068,3.16416h-2.00262c-0.0701-1.35177-0.1402-2.71356-0.31041-4.00526
		c0.1483,0.03073,0.29916,0.04749,0.45061,0.05007c0.6091,0.04663,1.16647-0.34311,1.33173-0.93122
		c0.19026-0.761-0.39052-0.761-0.66086-0.761h-0.93123l-1.47195,5.66744h-1.81238L187.82664,54.02434z"/>
	<path d="M168.43117,54.02434h3.21422c1.59209,0,2.00262,0.761,1.64217,2.18287c-0.25215,0.86504-0.92162,1.5458-1.78233,1.81238
		c0.17024,1.07141,0.31041,2.19288,0.51068,3.16416h-2.00262c-0.0701-1.35177-0.1402-2.71356-0.31041-4.00526
		c0.14824,0.03115,0.29913,0.04792,0.45061,0.05007c0.6091,0.04663,1.16647-0.34311,1.33173-0.93122
		c0.19026-0.761-0.39052-0.761-0.66087-0.761h-0.93121l-1.47195,5.66744h-1.84242L168.43117,54.02434z"/>
	<path d="M88.35603,54.03435h3.21421c1.59209,0,2.00263,0.761,1.64217,2.18287c-0.25216,0.86504-0.92162,1.54579-1.78233,1.81238
		c0.17023,1.07141,0.3104,2.20289,0.51068,3.16416h-2.00263c-0.0701-1.35177-0.1402-2.71356-0.31041-4.00526
		c0.15151,0.03186,0.30579,0.04864,0.4606,0.05007c0.60911,0.04663,1.16648-0.34311,1.33173-0.93122
		c0.19025-0.761-0.39053-0.761-0.66087-0.761h-0.93121L88.346,61.20377h-1.81238L88.35603,54.03435z"/>
	<polygon points="144.59988,54.02434 150.23727,54.03435 149.84676,55.56637 147.98431,55.56637 146.55244,61.17373 
		144.65996,61.17373 146.09183,55.55635 144.20937,55.55635 	"/>
	<polygon points="116.11246,54.03435 121.75988,54.04437 121.35935,55.57638 119.49691,55.56637 118.06503,61.18374 
		116.17254,61.18374 117.60442,55.56637 115.72195,55.56637 	"/>
	<polygon points="74.06725,54.02434 79.70466,54.03435 79.31414,55.56637 77.44168,55.56637 76.00981,61.18374 74.11732,61.17373 
		75.54919,55.56637 73.67674,55.55635 	"/>
	<path d="M139.71347,54.03435l-1.00131,4.07535c-0.26036,1.00132-0.17024,1.64216,0.68088,1.64216
		c0.85114,0,1.25165-0.61081,1.52199-1.63214l1.00133-4.07535h1.8925l-1.26167,4.83635
		c-0.44058,1.72226-1.84242,2.43319-3.61473,2.42318c-1.77232-0.01002-2.81369-0.71093-2.37311-2.44321l1.24161-4.83635
		L139.71347,54.03435z"/>
	<polygon points="112.08718,54.03435 108.58258,61.17373 106.26954,61.17373 106.62,56.75793 106.59998,56.75793 
		104.68747,61.17373 102.49458,61.16372 102.71487,54.02434 104.51723,54.02434 104.23687,59.04093 104.24689,59.04093 
		106.35966,54.02434 108.40234,54.02434 107.97178,59.04093 107.9918,59.04093 110.34489,54.03435 	"/>
	<path d="M71.38372,61.20377c-0.5507,0.05007-1.32174,0.16022-1.66219,0.16022c-2.1328,0-3.25427-1.33175-2.65347-3.71488
		c0.43297-2.16109,2.34206-3.70855,4.54597-3.68484c0.51963,0.01226,1.03651,0.07939,1.54203,0.20026l-0.28036,1.66219
		c-0.42888-0.17919-0.88715-0.27763-1.35178-0.29038c-1.24612,0.04378-2.3047,0.92524-2.57339,2.14281
		c-0.28037,1.10144,0,2.1328,1.16153,2.1328c0.63147-0.00758,1.25861-0.10536,1.86243-0.29038L71.38372,61.20377z"/>
	<path d="M93.30252,59.27123c0.42576,0.30032,0.93106,0.46758,1.45192,0.48064c0.3104,0,0.85112-0.05007,1.00131-0.56073
		c0.23032-0.9112-1.87245-1.64216-1.41186-3.46455c0.34258-1.17532,1.46307-1.9488,2.68352-1.85243
		c0.52058,0.00797,1.03832,0.07857,1.54204,0.21028l-0.22029,1.69222c-0.36795-0.23596-0.79456-0.36429-1.23163-0.37049
		c-0.29039,0-0.83108,0.14018-0.92123,0.51067c-0.27034,1.00132,1.8925,1.54203,1.42188,3.41449
		c-0.34237,1.23548-1.5163,2.05177-2.79368,1.94255c-0.58842-0.01649-1.17302-0.10048-1.74228-0.25033L93.30252,59.27123z"/>
	<path d="M192.7431,59.27123c0.42294,0.29844,0.92445,0.46561,1.44189,0.48064c0.31041,0,0.85112-0.05007,1.00131-0.56073
		c0.23032-0.9112-1.87245-1.64216-1.41187-3.46455c0.34259-1.17532,1.46307-1.9488,2.68352-1.85243
		c0.52058,0.00788,1.03836,0.07847,1.54204,0.21028l-0.22029,1.69222c-0.36816-0.23547-0.79465-0.36377-1.23163-0.37049
		c-0.29039,0-0.83107,0.14018-0.92122,0.51067c-0.27034,1.00132,1.8925,1.54203,1.42188,3.41449
		c-0.34236,1.23548-1.5163,2.05177-2.79367,1.94255c-0.58846-0.01622-1.17308-0.10022-1.74228-0.25033L192.7431,59.27123z"/>
	<path d="M63.66359,53.93422c-2.20701-0.02277-4.11719,1.52978-4.54596,3.69485c-0.6108,2.38313,0.51067,3.70486,2.65348,3.71488
		c2.20561,0.01877,4.11354-1.53197,4.54596-3.69485C66.91787,55.26597,65.7964,53.94423,63.66359,53.93422z M64.42461,57.6491
		c-0.1835,1.13797-1.10665,2.01189-2.25296,2.1328c-1.1415,0-1.4419-1.00132-1.16153-2.1328
		c0.18263-1.14019,1.10506-2.01752,2.25296-2.14281c1.18155-0.01001,1.4419,1.03135,1.18155,2.14281H64.42461z"/>
	<path d="M83.54969,53.93422c-2.207-0.02278-4.11719,1.52977-4.54597,3.69485c-0.61079,2.38313,0.51068,3.70486,2.65348,3.71488
		c2.20699,0.02278,4.11719-1.52977,4.54597-3.69485C86.81399,55.26597,85.69252,53.94423,83.54969,53.93422z M84.3107,57.6491
		c-0.18349,1.13797-1.10664,2.01189-2.25295,2.1328c-1.15151,0-1.4419-1.00132-1.16153-2.1328
		c0.18264-1.14019,1.10506-2.01752,2.25295-2.14281C84.30068,55.49628,84.59107,56.53764,84.3107,57.6491z"/>
	<path d="M133.38515,53.93422c-2.20561-0.01878-4.11356,1.53196-4.54597,3.69485c-0.61078,2.38313,0.51068,3.70486,2.65349,3.71488
		c2.20561,0.01878,4.11356-1.53196,4.54597-3.69485C136.64941,55.26597,135.53798,53.94423,133.38515,53.93422z M134.14616,57.6491
		c-0.1835,1.13797-1.10664,2.01189-2.25296,2.1328c-1.14151,0-1.44189-1.00132-1.16153-2.1328
		c0.18265-1.14019,1.10506-2.01752,2.25296-2.14281c1.1515-0.01001,1.44189,1.03135,1.1615,2.14281H134.14616z"/>
	<path d="M163.82512,53.93422c-2.20563-0.01878-4.11356,1.53196-4.54597,3.69485c-0.61079,2.38313,0.51068,3.70486,2.65347,3.71488
		c2.20563,0.01878,4.11356-1.53196,4.54597-3.69485C167.08942,55.26597,165.96794,53.94423,163.82512,53.93422z M164.58614,57.6491
		c-0.1835,1.13797-1.10666,2.01189-2.25296,2.1328c-1.14153,0-1.44189-1.00132-1.16153-2.1328
		c0.18263-1.14019,1.10506-2.01752,2.25296-2.14281c1.1515-0.01001,1.44189,1.03135,1.1515,2.14281H164.58614z"/>
	<path d="M118.21524,41.8083h-2.32306c-1.58206,2.44321-3.15414,4.91645-4.8063,7.28957h2.12278l1.3017-2.10276h2.26299
		l0.13017,2.10276h2.00263C118.66581,46.6847,118.36543,44.18142,118.21524,41.8083z M115.32143,45.4631l1.2917-2.08274l0,0
		l0.13018,2.08274H115.32143z"/>
	<path d="M74.23748,41.85836h-3.47456l-1.85244,7.32962h3.06402c2.11276,0,3.52462-1.522,4.06534-3.64479
		C76.82085,42.4191,75.13866,41.85836,74.23748,41.85836z M74.09727,45.50315c-0.27034,1.0714-1.00131,2.08274-2.11275,2.08274
		h-0.8411l1.06139-4.16547h1.00131c1.01134-0.00001,1.25164,0.76099,0.89118,2.07271L74.09727,45.50315z"/>
	<polygon points="81.58714,44.66205 81.18661,46.2241 78.61323,46.2241 78.27277,47.54583 81.3368,47.55585 80.93628,49.1179 
		75.94972,49.10789 77.81217,41.81831 82.79872,41.82833 82.39819,43.39038 79.34418,43.38036 79.01376,44.66205 	"/>
	<polygon points="68.56002,44.68207 68.16951,46.24413 65.59613,46.23411 65.25568,47.55585 68.31971,47.56586 67.91918,49.12791 
		62.92262,49.1179 64.78506,41.82833 69.78163,41.83834 69.3811,43.40039 66.31708,43.40039 65.99666,44.67206 	"/>
	<polygon points="89.81793,41.84835 91.75047,41.85836 89.88802,49.14794 87.95549,49.14794 	"/>
	<polygon points="58.98745,41.81831 58.86729,46.40434 58.88732,46.40434 61.16031,41.81831 63.69363,41.82833 61.83118,49.1179 
		60.22908,49.1179 61.56083,43.89104 61.55082,43.89104 58.93739,49.10789 57.29523,49.10789 57.39536,43.89104 57.37534,43.89104 
		56.04359,49.10789 54.57165,49.10789 56.4341,41.81831 	"/>
	<polygon points="121.39941,41.79829 123.6824,41.8083 124.82391,46.55453 124.84393,46.55453 126.05552,41.8083 
		127.74775,41.81831 125.8853,49.10789 123.63234,49.09787 122.44077,44.44176 122.42075,44.44176 121.22919,49.09787 
		119.53696,49.09787 	"/>
	<polygon points="92.96206,41.79829 95.24506,41.8083 96.39658,46.55453 96.40659,46.55453 97.6282,41.8083 99.32042,41.81831 
		97.45797,49.10789 95.20501,49.09787 94.00343,44.44176 93.98341,44.44176 92.80186,49.09787 91.09962,49.09787 	"/>
	<path d="M86.91412,49.1179c-0.57076,0.05007-1.35178,0.16021-1.70225,0.16021c-2.18285,0-3.32437-1.36179-2.70356-3.78497
		c0.44196-2.20473,2.3876-3.78479,4.63609-3.76495c0.53296,0.01072,1.06326,0.07785,1.58206,0.20026l-0.2503,1.69223
		c-0.4385-0.18339-0.90677-0.28519-1.38182-0.3004c-1.26894,0.04684-2.34667,0.94358-2.62344,2.18287
		c-0.29039,1.12148,0,2.17285,1.18154,2.17285c0.61785-0.01352,1.23096-0.11122,1.8224-0.29038L86.91412,49.1179z"/>
	<path d="M98.91988,47.18536c0.43163,0.30491,0.94368,0.4756,1.47193,0.49064c0.31041,0,0.87114-0.05007,1.00132-0.57075
		c0.2403-0.93122-1.91252-1.67219-1.43188-3.53464c0.34747-1.19899,1.48901-1.98929,2.7336-1.89248
		c0.53054,0.00702,1.05833,0.07761,1.57207,0.21027l-0.23031,1.73228c-0.37772-0.23888-0.81477-0.36722-1.26167-0.37049
		c-0.29039,0-0.84109,0.14018-0.94124,0.52068c-0.27034,1.07141,1.93253,1.58208,1.45192,3.48458
		c-0.33925,1.26714-1.53638,2.11018-2.84373,2.00263c-0.59838-0.01569-1.19301-0.09967-1.77232-0.25033L98.91988,47.18536z"/>
	<path d="M106.97046,47.18536c0.43163,0.30491,0.94369,0.4756,1.47194,0.49064c0.3104,0,0.87114-0.05007,1.00131-0.57075
		c0.24031-0.93122-1.91251-1.67219-1.43187-3.53464c0.34824-1.20293,1.4954-1.99425,2.74359-1.89248
		c0.53054,0.00692,1.05836,0.07752,1.57207,0.21027l-0.23032,1.73228c-0.37772-0.23888-0.81476-0.36722-1.26167-0.37049
		c-0.29039,0-0.8411,0.14018-0.94124,0.52068c-0.27035,1.07141,1.93253,1.58208,1.45192,3.48458
		c-0.33926,1.26714-1.53638,2.11018-2.84373,2.00263c-0.59838-0.0156-1.19303-0.09959-1.77232-0.25033L106.97046,47.18536z"/>
	<path d="M127.4774,47.18536c0.43163,0.30491,0.94368,0.4756,1.47194,0.49064c0.31039,0,0.87114-0.05007,1.00131-0.57075
		c0.24031-0.93122-1.91252-1.67219-1.43187-3.53464c0.34824-1.20293,1.49539-1.99425,2.74359-1.89248
		c0.53053,0.00711,1.0583,0.07771,1.57207,0.21027l-0.23032,1.73228c-0.37772-0.23888-0.81476-0.36722-1.26166-0.37049
		c-0.29039,0-0.84111,0.14018-0.94124,0.52068c-0.27036,1.07141,1.93253,1.58208,1.45192,3.48458
		c-0.33926,1.26714-1.53639,2.11018-2.84373,2.00263c-0.60175-0.01474-1.19982-0.09875-1.78234-0.25033L127.4774,47.18536z"/>
	<polygon points="178.00374,44.66205 177.60321,46.2241 175.03984,46.21408 174.6994,47.53582 177.75342,47.54583 
		177.35287,49.10789 172.36633,49.09787 174.22878,41.8083 179.21533,41.81831 178.82481,43.38036 175.76079,43.38036 
		175.44038,44.65203 	"/>
	<polygon points="190.53018,44.66205 190.12967,46.2241 187.5663,46.21408 187.22585,47.53582 190.27986,47.54583 
		189.87933,49.10789 184.89278,49.09787 186.75522,41.8083 191.74179,41.81831 191.35127,43.38036 188.28723,43.38036 
		187.96683,44.65203 	"/>
	<polygon points="140.5045,44.65203 140.10397,46.21408 137.7709,46.21408 137.02994,49.09787 135.0974,49.08786 
		136.95984,41.79829 141.68605,41.8083 141.28552,43.37035 138.49185,43.37035 138.17143,44.65203 	"/>
	<polygon points="171.0446,41.79829 172.97714,41.8083 171.11469,49.09787 169.18216,49.08786 	"/>
	<polygon points="157.03621,41.79829 159.3192,41.8083 160.46071,46.55453 160.48073,46.55453 161.69232,41.8083 
		163.38454,41.81831 161.52209,49.10789 159.26913,49.09787 158.07756,44.44176 158.05756,44.44176 156.86598,49.09787 
		155.17377,49.09787 	"/>
	<path d="M180.31677,41.81831h3.28432c1.62213,0,2.00262,0.78102,1.68221,2.22292c-0.25893,0.87804-0.93871,1.5691-1.81238,1.84242
		c0.17023,1.09143,0.32042,2.24294,0.52068,3.22424h-2.09276c-0.0701-1.38181-0.1402-2.76363-0.32042-4.08537
		c0.15135,0.03426,0.30554,0.05437,0.4606,0.06008c0.60837,0.05324,1.17297-0.3204,1.3618-0.90118
		c0.20027-0.78102-0.40053-0.78102-0.68089-0.78102h-0.95126l-1.47192,5.75756h-1.85245L180.31677,41.81831z"/>
	<path d="M142.64732,41.8083h3.27428c1.62213,0,2.00264,0.78102,1.68221,2.22292c-0.25732,0.87897-0.93776,1.57067-1.81238,1.84241
		c0.17024,1.09143,0.32043,2.24294,0.52068,3.22424h-2.08272c-0.0701-1.38181-0.1402-2.76363-0.32043-4.09538
		c0.15129,0.03455,0.30551,0.05466,0.4606,0.06008c0.61882,0.04242,1.18277-0.35444,1.35178-0.95124
		c0.20027-0.78102-0.40051-0.78102-0.6709-0.78102h-0.95126l-1.47192,5.75756h-1.85245L142.64732,41.8083z"/>
	<polygon points="164.29575,41.82833 170.0533,41.83834 169.65277,43.40039 167.75027,43.40039 166.28836,49.12791 
		164.34581,49.1179 165.81775,43.39038 163.90523,43.39038 	"/>
	<path d="M191.30121,47.18536c0.43163,0.30491,0.94368,0.4756,1.47192,0.49064c0.31041,0,0.87114-0.05007,1.00131-0.57075
		c0.24031-0.93122-1.91251-1.67219-1.43187-3.53464c0.34824-1.20293,1.49541-1.99425,2.74359-1.89248
		c0.53055,0.00721,1.0583,0.0778,1.57208,0.21027l-0.23032,1.73228c-0.37773-0.23888-0.81476-0.36722-1.26167-0.37049
		c-0.29039,0-0.84109,0.14018-0.94124,0.52068c-0.27034,1.07141,1.93254,1.58208,1.45192,3.48458
		c-0.33925,1.26714-1.53638,2.11018-2.84373,2.00263c-0.59834-0.01595-1.19293-0.09993-1.77231-0.25033L191.30121,47.18536z"/>
	<path d="M152.3801,41.69815c-2.24849-0.01984-4.19414,1.56021-4.63609,3.76495c-0.6208,2.42318,0.52068,3.78497,2.70357,3.78497
		c2.25159,0.01891,4.19835-1.56624,4.63609-3.77496C155.71446,43.05994,154.56296,41.70816,152.3801,41.69815z M153.15109,45.48312
		c-0.18738,1.15824-1.12637,2.04802-2.29301,2.17285c-1.17155,0-1.47194-1.05138-1.18155-2.18287
		c0.18654-1.16047,1.12477-2.05366,2.29303-2.18287C153.14108,43.30026,153.44148,44.36165,153.15109,45.48312z"/>
	<path class="st2" d="M22.95013,55.04568c0.62081-0.37049,2.00263-1.11146,2.17285-1.21159
		c0.17022-0.10013,0.42055-0.14018,0.43056-0.06007c0,0.32042,0,1.00131,0.43056,1.11146c0.12015,0,0.42055-0.10013,0.47062,0
		c0.0576,0.08455,0.12118,0.16485,0.19025,0.24031c0,0.08011,0.25033,0,0.29037,0.07009c0.04005,0.07009,0,0.24031,0.06008,0.31041
		c0.06008,0.07009,0.3004-0.07009,0.40052-0.05007c0.15337,0.04689,0.23968,0.20923,0.19279,0.3626
		c-0.00081,0.00264-0.00165,0.00527-0.00254,0.00789c0,0.21028,0.08011,0.3805,0.43056,0.09011
		c0.18023-0.1502,0.20026-0.07009,0.35047-0.1502c0.09604-0.05545,0.21436-0.05545,0.31041,0
		c0.07561,0.08963,0.1673,0.16434,0.27036,0.22029c0.15019,0.05007,0.3004,0,0.39051,0s0.14018,0.25033,0.26034,0.27035
		s0.2303-0.21028,0.31041-0.14019c0.08011,0.07009-0.18023,0.54071,0.09011,0.61081c0.27034,0.07009,0.20026-0.0701,0.32043-0.09011
		c0.12017-0.02002,0.18023-0.1502,0.28037-0.1502s0.17022,0.12016,0.3004,0l0.28037-0.1502
		c0.14018-0.0801,0.29037,0,0.37048-0.11015s0-0.3004,0.31041-0.24031c0.31041,0.06008,0,0.33043,0.08011,0.44058
		s0.35047,0,0.43056,0c0.16868-0.0783,0.30116-0.21795,0.37048-0.39051c0.12045-0.29458,0.25751-0.58209,0.41055-0.86113
		c0.10014-0.1502,0.35046-0.73096,0.48063-0.93122s0.66087-1.00132,0.71094-1.18155
		c0.08891-0.14225,0.18587-0.27932,0.29037-0.41054c0-0.10013,0.16021-0.43056,0.29037-0.70092
		c0.13016-0.27035,0.50066-0.80105,0.53069-0.89117c0.03004-0.09011,0.31041-0.75099,0.41055-0.94124
		c0.10014-0.19025,0.45059-0.65086,0.53069-0.87115c0.08011-0.22029,0.32043-0.67088,0.32043-0.67088l0.25033-0.41054
		l0.20026-0.43057c0.12015-0.25033,0.46061-0.78102,0.56073-1.00131c0.10012-0.22029,0.3805-0.56073,0.3805-0.56073l0.21028-0.48064
		l0.17022-0.36047c0.05593-0.18732,0.12281-0.37122,0.20026-0.55072c0.0701-0.12016,0.3004-0.40053,0.37048-0.55073
		s0.26034-0.81106,0.36047-1.00132c0.10014-0.19025,0.58076-1.06139,0.63083-1.23162
		c0.05007-0.17023,0.55073-1.06139,0.6008-1.24163c0.02752-0.18697,0.07106-0.37122,0.13018-0.55073
		c0.0701-0.12016,0.26034-0.41054,0.3004-0.50066l0.42055-1.00132c0-0.12016,0.08011-0.33044,0.22029-0.33044
		s0.2303,0.14019,0.31041,0.26035s0.3004,0.12016,0.41054,0.2303c0.18649,0.18584,0.3573,0.3868,0.51067,0.60079
		c0,0.07009,0.2303,0.08011,0.28037,0.1502c0.05007,0.07009,0.0801,0.2303,0.15019,0.27035
		c0.16916,0.09875,0.32411,0.22002,0.46061,0.36047c0.06368,0.12804,0.14088,0.24889,0.2303,0.36047
		c0.18456,0.11415,0.35583,0.24848,0.51067,0.40053c0.05007,0.10013,0.6008,0.761,0.66087,0.88115
		c0.06008,0.12016,0.12016,0.31041,0.17022,0.40053s0.25033,0.20026,0.26034,0.28037c0.01128,0.15582,0.03812,0.31012,0.0801,0.4606
		c0,0.08011,0.28037,0.18024,0.32043,0.26035c0.04539,0.15566,0.10576,0.30655,0.18023,0.45059
		c0,0.05007,0.15019,0.12016,0.18023,0.18024c0.03107,0.16891,0.07118,0.33604,0.12015,0.50066
		c0.09722,0.1474,0.1842,0.30129,0.26034,0.46061c0.05007,0.12016,0.21028,0.33044,0.25033,0.41054
		c0.04005,0.08011,0,0.41055,0.0801,0.5307c0.08011,0.12015,0.18023,0.36047,0.20026,0.43056s0,0.26035,0,0.26035l0.13018,0.32042
		c0.06839,0.13646,0.11887,0.28118,0.15019,0.43056c-0.0098,0.10993-0.0098,0.2205,0,0.33044
		c0,0.08011,0.15019,0.3004,0.15019,0.36047c0.04782,0.15481,0.1081,0.3055,0.18023,0.45059
		c-0.01665,0.13634-0.01665,0.2742,0,0.41055c0.07396,0.12681,0.13436,0.26107,0.18023,0.40052
		c0.00689,0.10002,0.00689,0.20038,0,0.3004l0.0801,0.13017c0,0-0.05007,0.18024,0,0.25033s0,0.22029,0,0.27035
		c0.071,0.12832,0.13128,0.26228,0.18023,0.40053c-0.10014,0.12016-7.0092,3.31435-10.01315,4.69617
		c-4.27562,2.00263-13.15728,6.44847-14.09851,7.0092s-1.54202,0.86113-1.77233,0.74097
		c-0.97262-0.60652-1.68607-1.55183-2.00263-2.65348c-0.36165-0.98585-0.51506-2.03595-0.45059-3.08405
		c-0.05835-0.4877,0.21034-0.95587,0.66087-1.15151L22.95013,55.04568z"/>
	<path class="st2" d="M10.64397,30.5435c0,0.07009,0.18023,0.06008,0.29037,0.09011s0.17022,0.12016,0.24032,0.13017
		c0.0701,0.01001,0.17022,0,0.20026,0c0.03004,0,0.09011,0.19025,0.15019,0.29038c0.06008,0.10013,0.10014,0.27035,0.20026,0.3004
		c0.10012,0.03005,0.2303,0,0.27036,0.12016c0.04006,0.12016,0,0.25033,0,0.3805c0.19025,0.33043,0,1.24163,0.19025,1.31172
		c0.3015,0.02172,0.60055-0.06729,0.8411-0.25033c0.17117-0.18372,0.35887-0.35131,0.56073-0.50066
		c0.32229-0.16887,0.65705-0.31281,1.00131-0.43057c0.24032,0,0.36047-0.44058,0.6008-0.4606
		c0.24032-0.02002,0.15019-0.21028,0.3104-0.27035c0.16021-0.06008,0.48063-0.23031,0.58076-0.14018
		c0.07719,0.09868,0.17672,0.17762,0.29037,0.23031c0.18023,0.07009,0.37048,0,0.41054,0.18024s0.50066,0,0.50066,0
		c0.25205-0.16717,0.51276-0.32092,0.78102-0.4606c0.2303-0.10013,0.85112-0.42055,0.85112-0.42055l0.69091-0.35046
		c7.46982-3.58471,13.35754-5.56731,18.77465-7.66006c8.42106-3.26429,23.03024-7.0092,25.76384-7.6901
		c0.29039-0.07009,0.94124-0.17022,1.00132-0.22029c0.14762-0.05517,0.25451-0.18499,0.28036-0.34045
		c0.0701-0.27036-0.13017-0.63083-0.13017-0.761c0-0.13017,0.30038-0.66087,0.33041-0.89117
		c0.01751-0.12598-0.0704-0.24231-0.19639-0.25983c-0.00129-0.00018-0.00257-0.00035-0.00388-0.00051
		c0.02692-0.1658,0.02692-0.33486,0-0.50066c-0.06007-0.21027-0.43056-0.40053-0.50066-0.56074
		c-0.0701-0.16021,0-0.66087-0.0701-0.83109c-0.06295-0.12159-0.15603-0.22501-0.27035-0.30039
		c0.02952-0.07393,0.02952-0.15637,0-0.2303c-0.03074-0.08281-0.11211-0.1357-0.20027-0.13017
		c0.01867-0.14291,0.01867-0.28765,0-0.43057c0-0.11015-0.20028-0.20026-0.20028-0.20026s-0.20027-0.13017-0.20027-0.27036
		c0.01274-0.1161-0.03673-0.23031-0.13018-0.30039c-0.16339-0.04892-0.331-0.08244-0.50066-0.10013
		c-0.15956-0.06049-0.33063-0.08444-0.50066-0.07009c-0.22466,0.11188-0.45933,0.2024-0.70092,0.27036
		c-0.2863,0.02932-0.57484,0.02932-0.86113,0c-0.20026,0-0.43056,0.17022-0.66087,0.2303
		C58.37659,9.63605,48.03301,12.64,40.40299,15.51377c-7.05619,2.69348-13.9649,5.75845-20.69718,9.18206
		c-3.89511,2.00263-6.00789,3.1942-6.84899,3.73491c-0.36277,0.20123-0.69911,0.44677-1.00132,0.73096
		c-0.12015,0.20026-0.25033,0.51067-0.51066,0.55073c-0.26034,0.04005-0.27036,0.22029-0.37048,0.24031
		c-0.1336,0.05704-0.25319,0.14245-0.35047,0.25033C10.54031,30.30426,10.54906,30.45284,10.64397,30.5435z"/>
	<path class="st2" d="M42.85627,25.91743c-0.35047-0.21028-0.2303-0.40053,0.17022-0.57075
		c2.46324-1.05138,8.69142-3.2743,12.26611-4.40579c3.00394-1.00131,11.47507-3.71488,13.81815-4.38576
		c0.56074-0.16022,0.79105-0.16022,1.00132,0.11014c0.73528,0.81605,1.3552,1.72908,1.84241,2.71356
		c0.5368,1.11154,0.93369,2.28536,1.18154,3.49459c0.13017,0.69091-0.19025,0.81106-0.56074,1.00132
		c-2.60342,1.17154-9.01183,4.00526-11.71538,5.24689s-7.39972,3.53464-9.01183,4.34571c-0.68089,0.34044-0.57076,0.48063-1.00132,0
		c-0.15514-0.2021-0.29889-0.41271-0.43056-0.63083c-0.0701-0.10013-1.00132-0.89117-1.06139-1.00131
		c-0.06008-0.11014-0.6008-0.70092-0.73096-0.79104s-0.56073-0.69091-0.70092-0.761
		c-0.16092-0.07092-0.31229-0.16175-0.45059-0.27035c-0.11507-0.13165-0.23884-0.25542-0.37048-0.37049
		c-0.11334-0.09293-0.22038-0.19329-0.32043-0.3004l-0.31041-0.28037l-0.26034-0.3004
		c-0.11019-0.14378-0.24597-0.26598-0.40052-0.36047c-0.18246-0.10907-0.33949-0.25587-0.46061-0.43057
		c-0.24856-0.3439-0.53769-0.65656-0.86113-0.93122c-0.26033-0.17022-0.90118-0.58076-1.00131-0.68089
		C43.38698,26.25788,43.14665,26.08765,42.85627,25.91743z"/>
	<path class="st2" d="M52.34873,35.00937c-0.25033-0.25033,0.0701-0.29038,0.37048-0.40053
		c1.09143-0.42055,7.57996-2.45322,13.22738-3.93517c5.64743-1.48195,13.7781-3.17417,15.01972-3.41449
		c0.51068-0.10013,0.70093,0,1.00131,0.39051c0.53996,1.06979,0.93076,2.20853,1.16153,3.38444
		c0.21974,1.23357,0.17537,2.49971-0.13017,3.71488c-0.12016,0.33043-0.58075,0.36047-1.68221,0.65086
		c-0.66087,0.18024-3.46454,0.90118-4.61604,1.23162c-1.33174,0.3805-4.83634,1.40184-6.13807,1.84241
		c-1.60211,0.55073-3.71487,1.24163-3.71487,1.24163l-11.17468,0.19025c-0.0541-0.28426-0.145-0.56028-0.27036-0.82108
		c-0.10014-0.07009-0.26034-0.43056-0.36048-0.53069c-0.09687-0.14264-0.17432-0.29753-0.2303-0.46061
		c0,0-0.10014-0.40053-0.20026-0.46061c-0.10012-0.06007-0.34044-0.64084-0.44058-0.70092
		c-0.15687-0.14847-0.29782-0.31291-0.42055-0.49064c-0.08558-0.15816-0.19349-0.30318-0.32043-0.43056
		c-0.16115-0.1633-0.33166-0.3171-0.51067-0.46061C52.70921,35.45996,52.59906,35.2597,52.34873,35.00937z"/>
	<path class="st2" d="M38.83098,13.45106c-0.32043,0-0.6008,0-0.67088-0.09012s0-0.14018-0.0701-0.21028
		c-0.08926-0.05403-0.20111-0.05403-0.29037,0c-0.04192,0.03976-0.09383,0.06743-0.15019,0.08011
		c-0.11015,0-0.53069-0.11015-0.68089-0.06008c-0.18689,0.05063-0.38387,0.05063-0.57076,0
		c-0.11015-0.05007-0.13017-0.34045-0.3104-0.42055c-0.19953-0.08185-0.37518-0.21272-0.51067-0.3805
		c-0.10014-0.17022-0.36047-0.43057-0.42055-0.56074s-0.14018-0.32042-0.18023-0.42055
		c-0.05184-0.13414-0.11904-0.26182-0.20026-0.3805c-0.06008-0.08011-0.15019-0.14018-0.21028-0.21028
		c-0.06009-0.07009-0.12016-0.31041-0.19025-0.41054s-0.11015-0.16021-0.15019-0.24032c-0.04004-0.08011,0-0.17022-0.0701-0.26034
		s-0.15019-0.22029-0.17022-0.31041c-0.02837-0.37329-0.02837-0.74819,0-1.12147c-0.02327-0.33337-0.02327-0.66795,0-1.00132
		c0-0.18024,0.14018-0.35046,0.17022-0.5307c0.03004-0.18024,0.27036-0.80105,0.34044-1.08142
		c0.078-0.33894,0.17495-0.67324,0.29037-1.00132c0.10862-0.28668,0.23228-0.56744,0.37048-0.8411
		c0.10014-0.16021,0.47062-0.72095,0.62081-0.9112c0.31451-0.35249,0.64883-0.6868,1.00131-1.00131l0.66087-0.48063l0.71094-0.48063
		c0.09357-0.0457,0.19625-0.06966,0.3004-0.07009l0.16021-0.16021c0.05131-0.0589,0.10833-0.11256,0.17022-0.16021
		c0.26773-0.04959,0.53196-0.11648,0.79103-0.20026c0.11015,0,0.19025-0.17022,0.29037-0.20026s0.46061-0.07009,0.51067,0
		c0.08241,0.08524,0.19242,0.13847,0.31041,0.1502c0.20026,0,0.37048,0,0.45059,0c0.0801,0,0.21028,0.16021,0.29037,0.19025
		c0.40379,0.32089,0.77597,0.67966,1.11146,1.07141c0.02937,0.08165,0.05279,0.16531,0.0701,0.25033
		c0.1142,0.11164,0.20002,0.24897,0.25033,0.40053c0,0.18024,0.2303,0.24032,0.25033,0.50066s0.31041,0.29038,0.39051,0.6108
		c0,0.08011,0.06008,0.39051,0.08011,0.44058c0.02003,0.05007,0.09011,0.07009,0.13018,0.18024
		c0.02622,0.13559,0.02622,0.27495,0,0.41054c0.09713,0.32752,0.16745,0.66239,0.21028,1.00132
		c-0.02354,0.29837-0.07722,0.59359-0.16021,0.88116c-0.08011,0.24032,0,0.68089-0.08011,0.87114
		c-0.0801,0.19025-0.19025,0.63083-0.21028,0.77101c-0.13187,0.36456-0.28226,0.72217-0.45057,1.0714
		c-0.06008,0.10013-0.28037,0.52068-0.3805,0.65086c-0.10014,0.13017-0.86113,1.19156-1.00132,1.33175
		s-0.48063,0.39051-0.5407,0.50066s-0.16021,0.31041-0.26034,0.4606c-0.10012,0.1502-0.36047,0.06008-0.46061,0.24032
		c-0.10014,0.18024-0.40052,0.30039-0.45059,0.43057c-0.0672,0.1776-0.17728,0.33584-0.32043,0.4606
		C39.36991,13.35579,39.10437,13.43856,38.83098,13.45106z"/>
	<path class="st2" d="M16.49165,46.18404c0,0-3.2743,1.10144-4.57602,1.56205c-1.30171,0.4606-2.5934,0.92121-3.5046,1.29169
		c-1.11146,0.45059-3.06402,1.25164-3.53464,1.41186c-0.73096,0.26035-1.00131,0.10013-1.24164-0.33043
		c-0.38949-0.76464-0.70145-1.56635-0.93122-2.39314c-0.19273-0.74515-0.32005-1.50569-0.3805-2.27298
		c0.02403-0.45939,0.26582-0.87974,0.65085-1.13148c0.40052-0.22029,1.35178-0.80106,2.11278-1.24163
		c1.46193-0.8411,6.47851-3.51462,9.47245-5.06665c3.17417-1.64215,8.17073-4.06533,10.85425-5.38707
		s7.09932-3.41449,7.63002-3.64478c0.42918-0.22775,0.88729-0.39618,1.36179-0.50066c0.27036,0,0.17022,0.13017,0.17022,0.23031
		s-0.09011,0.14018-0.12015,0.34044c-0.00717,0.20845-0.03061,0.41602-0.0701,0.62082
		c-0.0701,0.20026-0.24032,0.39051-0.27036,0.52068c-0.02021,0.26578-0.08452,0.52633-0.19025,0.77101
		c-0.29726,0.47199-0.53283,0.98011-0.70092,1.51199c-0.09986,0.44592-0.24064,0.88167-0.42055,1.30171
		c-0.18385,0.31759-0.33482,0.6531-0.45059,1.00132c-0.08862,0.29546-0.19222,0.58622-0.31041,0.87115
		c-0.0701,0.20026-0.46061,0.93122-0.53069,1.07141c-0.07009,0.14018-0.33044,1.00131-0.40052,1.15151
		s-0.33044,0.5307-0.33044,0.5307l-0.13017,0.56073c-0.14164,0.19726-0.26243,0.40866-0.36047,0.63083
		c-0.0881,0.41104-0.22246,0.81077-0.40052,1.19157c-0.35093,0.68375-0.64886,1.39344-0.89117,2.12279
		c-0.13017,0.50066-0.37048,1.2216-0.43056,1.39183s-0.43056,0.761-0.50066,1.00132
		c-0.0701,0.24031-0.36047,1.19157-0.46061,1.39183c-0.16697,0.31502-0.28833,0.65216-0.36047,1.00132
		c-0.07175,0.34927-0.19314,0.68646-0.36047,1.00131c-0.17022,0.36047-0.36047,1.00132-0.46061,1.23162
		s-0.2303,0.39051-0.26034,0.5307c-0.03004,0.14018-0.0701,0.50066-0.10014,0.60079
		c-0.03004,0.10013-0.10014,0.27035-0.10014,0.27035c-0.17022,0.0801-9.09194,3.91514-10.34358,4.50592L4.7462,60.99351
		c-0.56073,0.26035-1.31172,0.8411-1.86245,0.47062c-0.79158-0.65438-1.42486-1.47937-1.85244-2.41317
		c-0.45416-0.91386-0.74558-1.89989-0.86113-2.91383c-0.08011-1.1415,0.40052-1.35177,2.07273-2.32305
		c0.82109-0.48064,7.33964-3.91515,9.42238-5.00658L16.49165,46.18404z"/>
</g>
</svg>
