<svg id="7a8221fe-2033-4808-84b8-5030b12a901e" data-name="Layer 1" xmlns="http://www.w3.org/2000/svg" width="2.75in" height="0.88in" viewBox="0 0 197.74 63.05"><title>logo_white</title><line x1="53.86" y1="51.37" x2="193.67" y2="51.37" fill="none" stroke="#ef3e42" stroke-linecap="square" stroke-width="0.9"/><path d="M351.26,104.59c.33-1.28-.51-1.75-1-1.75h-3.76L344.65,110h3.15c1.31,0,2.38-.34,2.78-1.9.25-1-.12-1.65-.84-1.75v0A2.2,2.2,0,0,0,351.26,104.59Zm-2.42,3.21c-.2.77-.72.78-1.26.78h-.76l.39-1.52H348C348.52,107.06,349,107.06,348.84,107.8Zm.55-3c-.23.89-.83.83-1.34.83h-.49l.36-1.41h.64C349,104.24,349.54,104.24,349.39,104.82Z" transform="translate(-192.64 -48.99)" fill="#fff"/><path d="M370.59,102.84h-3.4L365.37,110h3c2.07,0,3.45-1.49,4-3.57C373.11,103.39,371.47,102.84,370.59,102.84Zm-.14,3.56c-.27,1-1,2-2.06,2h-.82l1-4.08h.95C370.57,104.37,370.79,105.08,370.45,106.4Z" transform="translate(-192.64 -48.99)" fill="#fff"/><path d="M249.15,102.84h-3.4L243.93,110h3c2.07,0,3.45-1.49,4-3.57C251.67,103.39,250,102.84,249.15,102.84ZM249,106.4c-.27,1-1,2-2.06,2h-.82l1-4.08h.95C249.13,104.37,249.35,105.08,249,106.4Z" transform="translate(-192.64 -48.99)" fill="#fff"/><polygon points="185.29 56.63 184.9 58.16 182.38 58.16 182.05 59.45 185.04 59.46 184.65 60.99 179.77 60.98 181.59 53.84 186.48 53.85 186.09 55.38 183.09 55.38 182.78 56.63 185.29 56.63" fill="#fff"/><polygon points="122.6 53.84 124.49 53.84 123.81 56.5 126.22 56.5 126.89 53.85 128.79 53.85 126.96 60.99 125.07 60.98 125.83 58.03 123.42 58.03 122.67 60.98 120.78 60.98 122.6 53.84" fill="#fff"/><polygon points="113.09 53.84 114.98 53.85 113.16 60.98 111.27 60.98 113.09 53.84" fill="#fff"/><path d="M380.22,102.83h3.21c1.59,0,2,.76,1.64,2.18a2.69,2.69,0,0,1-1.78,1.81c.17,1.07.31,2.19.51,3.16h-2c-.07-1.35-.14-2.71-.31-4a2.42,2.42,0,0,0,.45.05,1.28,1.28,0,0,0,1.33-.93c.19-.76-.39-.76-.66-.76h-.93L380.21,110H378.4Z" transform="translate(-192.64 -48.99)" fill="#fff"/><path d="M360.85,102.83h3.21c1.59,0,2,.76,1.64,2.18a2.68,2.68,0,0,1-1.78,1.81c.17,1.07.31,2.19.51,3.16h-2c-.07-1.35-.14-2.71-.31-4a2.35,2.35,0,0,0,.45.05,1.28,1.28,0,0,0,1.33-.93c.19-.76-.39-.76-.66-.76h-.93L360.84,110H359Z" transform="translate(-192.64 -48.99)" fill="#fff"/><path d="M280.88,102.84h3.21c1.59,0,2,.76,1.64,2.18a2.68,2.68,0,0,1-1.78,1.81c.17,1.07.31,2.2.51,3.16h-2c-.07-1.35-.14-2.71-.31-4a2.34,2.34,0,0,0,.46.05,1.28,1.28,0,0,0,1.33-.93c.19-.76-.39-.76-.66-.76h-.93L280.87,110h-1.81Z" transform="translate(-192.64 -48.99)" fill="#fff"/><polygon points="144.41 53.84 150.04 53.85 149.65 55.38 147.79 55.38 146.36 60.98 144.47 60.98 145.9 55.37 144.02 55.37 144.41 53.84" fill="#fff"/><polygon points="115.96 53.85 121.6 53.86 121.2 55.39 119.34 55.38 117.91 60.99 116.02 60.99 117.45 55.38 115.57 55.38 115.96 53.85" fill="#fff"/><polygon points="73.97 53.84 79.6 53.85 79.21 55.38 77.34 55.38 75.91 60.99 74.02 60.98 75.45 55.38 73.58 55.37 73.97 53.84" fill="#fff"/><path d="M332.17,102.84l-1,4.07c-.26,1-.17,1.64.68,1.64s1.25-.61,1.52-1.63l1-4.07h1.89L335,107.68c-.44,1.72-1.84,2.43-3.61,2.42s-2.81-.71-2.37-2.44l1.24-4.83Z" transform="translate(-192.64 -48.99)" fill="#fff"/><polygon points="111.94 53.85 108.44 60.98 106.13 60.98 106.48 56.57 106.46 56.57 104.55 60.98 102.36 60.97 102.58 53.84 104.38 53.84 104.1 58.85 104.11 58.85 106.22 53.84 108.26 53.84 107.83 58.85 107.85 58.85 110.2 53.85 111.94 53.85" fill="#fff"/><path d="M263.93,110c-.55.05-1.32.16-1.66.16-2.13,0-3.25-1.33-2.65-3.71a4.58,4.58,0,0,1,4.54-3.68,7.37,7.37,0,0,1,1.54.2l-.28,1.66a3.77,3.77,0,0,0-1.35-.29,2.73,2.73,0,0,0-2.57,2.14c-.28,1.1,0,2.13,1.16,2.13a6.62,6.62,0,0,0,1.86-.29Z" transform="translate(-192.64 -48.99)" fill="#fff"/><path d="M285.82,108.07a2.63,2.63,0,0,0,1.45.48c.31,0,.85-.05,1-.56.23-.91-1.87-1.64-1.41-3.46a2.58,2.58,0,0,1,2.68-1.85,6.48,6.48,0,0,1,1.54.21l-.22,1.69a2.34,2.34,0,0,0-1.23-.37c-.29,0-.83.14-.92.51-.27,1,1.89,1.54,1.42,3.41a2.66,2.66,0,0,1-2.79,1.94,7.68,7.68,0,0,1-1.74-.25Z" transform="translate(-192.64 -48.99)" fill="#fff"/><path d="M385.13,108.07a2.63,2.63,0,0,0,1.44.48c.31,0,.85-.05,1-.56.23-.91-1.87-1.64-1.41-3.46a2.58,2.58,0,0,1,2.68-1.85,6.47,6.47,0,0,1,1.54.21l-.22,1.69a2.35,2.35,0,0,0-1.23-.37c-.29,0-.83.14-.92.51-.27,1,1.89,1.54,1.42,3.41a2.66,2.66,0,0,1-2.79,1.94,7.65,7.65,0,0,1-1.74-.25Z" transform="translate(-192.64 -48.99)" fill="#fff"/><path d="M256.22,102.74a4.58,4.58,0,0,0-4.54,3.69c-.61,2.38.51,3.7,2.65,3.71a4.59,4.59,0,0,0,4.54-3.69C259.47,104.07,258.35,102.75,256.22,102.74Zm.76,3.71a2.55,2.55,0,0,1-2.25,2.13c-1.14,0-1.44-1-1.16-2.13a2.56,2.56,0,0,1,2.25-2.14C257,104.3,257.26,105.34,257,106.45Z" transform="translate(-192.64 -48.99)" fill="#fff"/><path d="M276.08,102.74a4.58,4.58,0,0,0-4.54,3.69c-.61,2.38.51,3.7,2.65,3.71a4.58,4.58,0,0,0,4.54-3.69C279.34,104.07,278.22,102.75,276.08,102.74Zm.76,3.71a2.55,2.55,0,0,1-2.25,2.13c-1.15,0-1.44-1-1.16-2.13a2.56,2.56,0,0,1,2.25-2.14C276.83,104.3,277.12,105.34,276.84,106.45Z" transform="translate(-192.64 -48.99)" fill="#fff"/><path d="M325.85,102.74a4.59,4.59,0,0,0-4.54,3.69c-.61,2.38.51,3.7,2.65,3.71a4.59,4.59,0,0,0,4.54-3.69C329.11,104.07,328,102.75,325.85,102.74Zm.76,3.71a2.55,2.55,0,0,1-2.25,2.13c-1.14,0-1.44-1-1.16-2.13a2.56,2.56,0,0,1,2.25-2.14C326.6,104.3,326.89,105.34,326.61,106.45Z" transform="translate(-192.64 -48.99)" fill="#fff"/><path d="M356.25,102.74a4.59,4.59,0,0,0-4.54,3.69c-.61,2.38.51,3.7,2.65,3.71a4.59,4.59,0,0,0,4.54-3.69C359.51,104.07,358.39,102.75,356.25,102.74Zm.76,3.71a2.55,2.55,0,0,1-2.25,2.13c-1.14,0-1.44-1-1.16-2.13a2.56,2.56,0,0,1,2.25-2.14C357,104.3,357.29,105.34,357,106.45Z" transform="translate(-192.64 -48.99)" fill="#fff"/><path d="M310.7,90.63h-2.32c-1.58,2.44-3.15,4.91-4.8,7.28h2.12L307,95.81h2.26l.13,2.1h2C311.15,95.5,310.85,93,310.7,90.63Zm-2.89,3.65,1.29-2.08h0l.13,2.08Z" transform="translate(-192.64 -48.99)" fill="#fff"/><path d="M266.78,90.68h-3.47L261.46,98h3.06c2.11,0,3.52-1.52,4.06-3.64C269.36,91.24,267.68,90.68,266.78,90.68Zm-.14,3.64c-.27,1.07-1,2.08-2.11,2.08h-.84l1.06-4.16h1C266.76,92.24,267,93,266.64,94.31Z" transform="translate(-192.64 -48.99)" fill="#fff"/><polygon points="81.48 44.49 81.08 46.05 78.51 46.05 78.17 47.37 81.23 47.38 80.83 48.94 75.85 48.93 77.71 41.65 82.69 41.66 82.29 43.22 79.24 43.21 78.91 44.49 81.48 44.49" fill="#fff"/><polygon points="68.47 44.51 68.08 46.07 65.51 46.06 65.17 47.38 68.23 47.39 67.83 48.95 62.84 48.94 64.7 41.66 69.69 41.67 69.29 43.23 66.23 43.23 65.91 44.5 68.47 44.51" fill="#fff"/><polygon points="89.7 41.68 91.63 41.69 89.77 48.97 87.84 48.97 89.7 41.68" fill="#fff"/><polygon points="58.91 41.65 58.79 46.23 58.81 46.23 61.08 41.65 63.61 41.66 61.75 48.94 60.15 48.94 61.48 43.72 61.47 43.72 58.86 48.93 57.22 48.93 57.32 43.72 57.3 43.72 55.97 48.93 54.5 48.93 56.36 41.65 58.91 41.65" fill="#fff"/><polygon points="121.24 41.63 123.52 41.64 124.66 46.38 124.68 46.38 125.89 41.64 127.58 41.65 125.72 48.93 123.47 48.92 122.28 44.27 122.26 44.27 121.07 48.92 119.38 48.92 121.24 41.63" fill="#fff"/><polygon points="92.84 41.63 95.12 41.64 96.27 46.38 96.28 46.38 97.5 41.64 99.19 41.65 97.33 48.93 95.08 48.92 93.88 44.27 93.86 44.27 92.68 48.92 90.98 48.92 92.84 41.63" fill="#fff"/><path d="M279.44,97.93c-.57.05-1.35.16-1.7.16-2.18,0-3.32-1.36-2.7-3.78a4.68,4.68,0,0,1,4.63-3.76,7.54,7.54,0,0,1,1.58.2L281,92.44a3.9,3.9,0,0,0-1.38-.3A2.79,2.79,0,0,0,277,94.32c-.29,1.12,0,2.17,1.18,2.17A6.79,6.79,0,0,0,280,96.2Z" transform="translate(-192.64 -48.99)" fill="#fff"/><path d="M291.43,96a2.68,2.68,0,0,0,1.47.49c.31,0,.87-.05,1-.57.24-.93-1.91-1.67-1.43-3.53a2.63,2.63,0,0,1,2.73-1.89,6.63,6.63,0,0,1,1.57.21l-.23,1.73a2.39,2.39,0,0,0-1.26-.37c-.29,0-.84.14-.94.52-.27,1.07,1.93,1.58,1.45,3.48a2.71,2.71,0,0,1-2.84,2,7.85,7.85,0,0,1-1.77-.25Z" transform="translate(-192.64 -48.99)" fill="#fff"/><path d="M299.47,96a2.68,2.68,0,0,0,1.47.49c.31,0,.87-.05,1-.57.24-.93-1.91-1.67-1.43-3.53a2.63,2.63,0,0,1,2.74-1.89,6.62,6.62,0,0,1,1.57.21l-.23,1.73a2.39,2.39,0,0,0-1.26-.37c-.29,0-.84.14-.94.52-.27,1.07,1.93,1.58,1.45,3.48a2.71,2.71,0,0,1-2.84,2,7.84,7.84,0,0,1-1.77-.25Z" transform="translate(-192.64 -48.99)" fill="#fff"/><path d="M319.95,96a2.68,2.68,0,0,0,1.47.49c.31,0,.87-.05,1-.57.24-.93-1.91-1.67-1.43-3.53a2.63,2.63,0,0,1,2.74-1.89,6.64,6.64,0,0,1,1.57.21l-.23,1.73a2.39,2.39,0,0,0-1.26-.37c-.29,0-.84.14-.94.52-.27,1.07,1.93,1.58,1.45,3.48a2.71,2.71,0,0,1-2.84,2,7.83,7.83,0,0,1-1.78-.25Z" transform="translate(-192.64 -48.99)" fill="#fff"/><polygon points="177.77 44.49 177.37 46.05 174.81 46.04 174.47 47.36 177.52 47.37 177.12 48.93 172.14 48.92 174 41.64 178.98 41.65 178.59 43.21 175.53 43.21 175.21 44.48 177.77 44.49" fill="#fff"/><polygon points="190.28 44.49 189.88 46.05 187.32 46.04 186.98 47.36 190.03 47.37 189.63 48.93 184.65 48.92 186.51 41.64 191.49 41.65 191.1 43.21 188.04 43.21 187.72 44.48 190.28 44.49" fill="#fff"/><polygon points="140.32 44.48 139.92 46.04 137.59 46.04 136.85 48.92 134.92 48.91 136.78 41.63 141.5 41.64 141.1 43.2 138.31 43.2 137.99 44.48 140.32 44.48" fill="#fff"/><polygon points="170.82 41.63 172.75 41.64 170.89 48.92 168.96 48.91 170.82 41.63" fill="#fff"/><polygon points="156.83 41.63 159.11 41.64 160.25 46.38 160.27 46.38 161.48 41.64 163.17 41.65 161.31 48.93 159.06 48.92 157.87 44.27 157.85 44.27 156.66 48.92 154.97 48.92 156.83 41.63" fill="#fff"/><path d="M372.72,90.64H376c1.62,0,2,.78,1.68,2.22a2.74,2.74,0,0,1-1.81,1.84c.17,1.09.32,2.24.52,3.22H374.3c-.07-1.38-.14-2.76-.32-4.08a2.5,2.5,0,0,0,.46.06A1.31,1.31,0,0,0,375.8,93c.2-.78-.4-.78-.68-.78h-.95l-1.47,5.75h-1.85Z" transform="translate(-192.64 -48.99)" fill="#fff"/><path d="M335.1,90.63h3.27c1.62,0,2,.78,1.68,2.22a2.73,2.73,0,0,1-1.81,1.84c.17,1.09.32,2.24.52,3.22h-2.08c-.07-1.38-.14-2.76-.32-4.09a2.45,2.45,0,0,0,.46.06,1.31,1.31,0,0,0,1.35-.95c.2-.78-.4-.78-.67-.78h-.95l-1.47,5.75h-1.85Z" transform="translate(-192.64 -48.99)" fill="#fff"/><polygon points="164.08 41.66 169.83 41.67 169.43 43.23 167.53 43.23 166.07 48.95 164.13 48.94 165.6 43.22 163.69 43.22 164.08 41.66" fill="#fff"/><path d="M383.69,96a2.68,2.68,0,0,0,1.47.49c.31,0,.87-.05,1-.57.24-.93-1.91-1.67-1.43-3.53a2.63,2.63,0,0,1,2.74-1.89,6.65,6.65,0,0,1,1.57.21l-.23,1.73a2.39,2.39,0,0,0-1.26-.37c-.29,0-.84.14-.94.52-.27,1.07,1.93,1.58,1.45,3.48a2.71,2.71,0,0,1-2.84,2,7.88,7.88,0,0,1-1.77-.25Z" transform="translate(-192.64 -48.99)" fill="#fff"/><path d="M344.82,90.52a4.68,4.68,0,0,0-4.63,3.76c-.62,2.42.52,3.78,2.7,3.78a4.68,4.68,0,0,0,4.63-3.77C348.15,91.88,347,90.53,344.82,90.52Zm.77,3.78a2.6,2.6,0,0,1-2.29,2.17c-1.17,0-1.47-1.05-1.18-2.18a2.61,2.61,0,0,1,2.29-2.18C345.58,92.12,345.88,93.18,345.59,94.3Z" transform="translate(-192.64 -48.99)" fill="#fff"/><path d="M215.56,103.85c.62-.37,2-1.11,2.17-1.21s.42-.14.43-.06c0,.32,0,1,.43,1.11.12,0,.42-.1.47,0a2.14,2.14,0,0,0,.19.24c0,.08.25,0,.29.07s0,.24.06.31.3-.07.4-.05a.29.29,0,0,1,.19.37c0,.21.08.38.43.09.18-.15.2-.07.35-.15a.31.31,0,0,1,.31,0,.94.94,0,0,0,.27.22c.15.05.3,0,.39,0s.14.25.26.27.23-.21.31-.14-.18.54.09.61.2-.07.32-.09.18-.15.28-.15.17.12.3,0l.28-.15c.14-.08.29,0,.37-.11s0-.3.31-.24,0,.33.08.44.35,0,.43,0a.73.73,0,0,0,.37-.39,8.4,8.4,0,0,1,.41-.86c.1-.15.35-.73.48-.93s.66-1,.71-1.18a4.41,4.41,0,0,1,.29-.41c0-.1.16-.43.29-.7s.5-.8.53-.89.31-.75.41-.94.45-.65.53-.87.32-.67.32-.67l.25-.41.2-.43c.12-.25.46-.78.56-1s.38-.56.38-.56l.21-.48.17-.36a5,5,0,0,1,.2-.55c.07-.12.3-.4.37-.55s.26-.81.36-1,.58-1.06.63-1.23.55-1.06.6-1.24a3.29,3.29,0,0,1,.13-.55c.07-.12.26-.41.3-.5l.42-1c0-.12.08-.33.22-.33s.23.14.31.26.3.12.41.23a4.77,4.77,0,0,1,.51.6c0,.07.23.08.28.15s.08.23.15.27a2.16,2.16,0,0,1,.46.36,2,2,0,0,0,.23.36,2.92,2.92,0,0,1,.51.4c.05.1.6.76.66.88s.12.31.17.4.25.2.26.28a2.34,2.34,0,0,0,.08.46c0,.08.28.18.32.26a2.51,2.51,0,0,0,.18.45c0,.05.15.12.18.18a4.8,4.8,0,0,0,.12.5,3.85,3.85,0,0,1,.26.46c.05.12.21.33.25.41s0,.41.08.53.18.36.2.43,0,.26,0,.26l.13.32a1.77,1.77,0,0,1,.15.43,1.86,1.86,0,0,0,0,.33c0,.08.15.3.15.36a3,3,0,0,0,.18.45,1.69,1.69,0,0,0,0,.41,2.09,2.09,0,0,1,.18.4,2.18,2.18,0,0,1,0,.3l.08.13s-.05.18,0,.25,0,.22,0,.27a2.66,2.66,0,0,1,.18.4c-.1.12-7,3.31-10,4.69-4.27,2-13.14,6.44-14.08,7s-1.54.86-1.77.74a4.63,4.63,0,0,1-2-2.65,7.59,7.59,0,0,1-.45-3.08,1.11,1.11,0,0,1,.66-1.15Z" transform="translate(-192.64 -48.99)" fill="#ef3e42" stroke="#ef3e42" stroke-width="0.23"/><path d="M203.27,79.38c0,.07.18.06.29.09s.17.12.24.13.17,0,.2,0,.09.19.15.29.1.27.2.3.23,0,.27.12,0,.25,0,.38c.19.33,0,1.24.19,1.31a1.24,1.24,0,0,0,.84-.25,4.09,4.09,0,0,1,.56-.5,7.12,7.12,0,0,1,1-.43c.24,0,.36-.44.6-.46s.15-.21.31-.27.48-.23.58-.14a.79.79,0,0,0,.29.23c.18.07.37,0,.41.18s.5,0,.5,0a8.58,8.58,0,0,1,.78-.46c.23-.1.85-.42.85-.42l.69-.35c7.46-3.58,13.34-5.56,18.75-7.65,8.41-3.26,23-7,25.73-7.68.29-.07.94-.17,1-.22a.44.44,0,0,0,.28-.34c.07-.27-.13-.63-.13-.76s.3-.66.33-.89a.23.23,0,0,0-.2-.26,1.56,1.56,0,0,0,0-.5c-.06-.21-.43-.4-.5-.56s0-.66-.07-.83a.8.8,0,0,0-.27-.3.31.31,0,0,0,0-.23.2.2,0,0,0-.2-.13,1.66,1.66,0,0,0,0-.43c0-.11-.2-.2-.2-.2s-.2-.13-.2-.27a.33.33,0,0,0-.13-.3,2.73,2.73,0,0,0-.5-.1,1.14,1.14,0,0,0-.5-.07,4,4,0,0,1-.7.27,4.22,4.22,0,0,1-.86,0c-.2,0-.43.17-.66.23-2.25.59-12.58,3.59-20.2,6.46a213.82,213.82,0,0,0-20.67,9.17c-3.89,2-6,3.19-6.84,3.73a5,5,0,0,0-1,.73c-.12.2-.25.51-.51.55s-.27.22-.37.24a1,1,0,0,0-.35.25A.25.25,0,0,0,203.27,79.38Z" transform="translate(-192.64 -48.99)" fill="#ef3e42" stroke="#ef3e42" stroke-width="0.23"/><path d="M235.44,74.76c-.35-.21-.23-.4.17-.57,2.46-1.05,8.68-3.27,12.25-4.4,3-1,11.46-3.71,13.8-4.38.56-.16.79-.16,1,.11a12,12,0,0,1,1.84,2.71,14.91,14.91,0,0,1,1.18,3.49c.13.69-.19.81-.56,1-2.6,1.17-9,4-11.7,5.24s-7.39,3.53-9,4.34c-.68.34-.57.48-1,0a6.84,6.84,0,0,1-.43-.63c-.07-.1-1-.89-1.06-1s-.6-.7-.73-.79-.56-.69-.7-.76a2.1,2.1,0,0,1-.45-.27,3.9,3.9,0,0,0-.37-.37,3.31,3.31,0,0,1-.32-.3l-.31-.28-.26-.3a1.47,1.47,0,0,0-.4-.36,1.49,1.49,0,0,1-.46-.43,5.27,5.27,0,0,0-.86-.93c-.26-.17-.9-.58-1-.68S235.73,74.93,235.44,74.76Z" transform="translate(-192.64 -48.99)" fill="#ef3e42" stroke="#ef3e42" stroke-width="0.23"/><path d="M244.92,83.84c-.25-.25.07-.29.37-.4,1.09-.42,7.57-2.45,13.21-3.93s13.76-3.17,15-3.41c.51-.1.7,0,1,.39a13.1,13.1,0,0,1,1.16,3.38,8.85,8.85,0,0,1-.13,3.71c-.12.33-.58.36-1.68.65-.66.18-3.46.9-4.61,1.23-1.33.38-4.83,1.4-6.13,1.84-1.6.55-3.71,1.24-3.71,1.24l-11.16.19a3.33,3.33,0,0,0-.27-.82c-.1-.07-.26-.43-.36-.53a1.94,1.94,0,0,1-.23-.46s-.1-.4-.2-.46-.34-.64-.44-.7a3.1,3.1,0,0,1-.42-.49,1.87,1.87,0,0,0-.32-.43,5.91,5.91,0,0,0-.51-.46C245.28,84.29,245.17,84.09,244.92,83.84Z" transform="translate(-192.64 -48.99)" fill="#ef3e42" stroke="#ef3e42" stroke-width="0.23"/><path d="M231.42,62.31c-.32,0-.6,0-.67-.09s0-.14-.07-.21a.28.28,0,0,0-.29,0,.32.32,0,0,1-.15.08c-.11,0-.53-.11-.68-.06a1.09,1.09,0,0,1-.57,0c-.11-.05-.13-.34-.31-.42a1.28,1.28,0,0,1-.51-.38c-.1-.17-.36-.43-.42-.56s-.14-.32-.18-.42a1.86,1.86,0,0,0-.2-.38c-.06-.08-.15-.14-.21-.21s-.12-.31-.19-.41-.11-.16-.15-.24,0-.17-.07-.26-.15-.22-.17-.31a7.39,7.39,0,0,1,0-1.12,7.18,7.18,0,0,1,0-1c0-.18.14-.35.17-.53s.27-.8.34-1.08a9.29,9.29,0,0,1,.29-1,8.71,8.71,0,0,1,.37-.84c.1-.16.47-.72.62-.91a12.44,12.44,0,0,1,1-1l.66-.48.71-.48a.69.69,0,0,1,.3-.07l.16-.16a1.18,1.18,0,0,1,.17-.16,6.29,6.29,0,0,0,.79-.2c.11,0,.19-.17.29-.2s.46-.07.51,0a.5.5,0,0,0,.31.15c.2,0,.37,0,.45,0s.21.16.29.19a8.08,8.08,0,0,1,1.11,1.07,1.8,1.8,0,0,1,.07.25,1,1,0,0,1,.25.4c0,.18.23.24.25.5s.31.29.39.61c0,.08.06.39.08.44s.09.07.13.18a1.08,1.08,0,0,1,0,.41,6.29,6.29,0,0,1,.21,1,4.43,4.43,0,0,1-.16.88c-.08.24,0,.68-.08.87s-.19.63-.21.77A11.38,11.38,0,0,1,235.6,58c-.06.1-.28.52-.38.65s-.86,1.19-1,1.33-.48.39-.54.5-.16.31-.26.46-.36.06-.46.24-.4.3-.45.43a1.15,1.15,0,0,1-.32.46A1.59,1.59,0,0,1,231.42,62.31Z" transform="translate(-192.64 -48.99)" fill="#ef3e42" stroke="#ef3e42" stroke-width="0.23"/><path d="M209.11,95s-3.27,1.1-4.57,1.56-2.59.92-3.5,1.29c-1.11.45-3.06,1.25-3.53,1.41-.73.26-1,.1-1.24-.33a12.84,12.84,0,0,1-.93-2.39,13.21,13.21,0,0,1-.38-2.27,1.44,1.44,0,0,1,.65-1.13c.4-.22,1.35-.8,2.11-1.24,1.46-.84,6.47-3.51,9.46-5.06,3.17-1.64,8.16-4.06,10.84-5.38s7.09-3.41,7.62-3.64a5.36,5.36,0,0,1,1.36-.5c.27,0,.17.13.17.23s-.09.14-.12.34a4,4,0,0,1-.07.62c-.07.2-.24.39-.27.52a2.4,2.4,0,0,1-.19.77,6.52,6.52,0,0,0-.7,1.51,7.42,7.42,0,0,1-.42,1.3,5.39,5.39,0,0,0-.45,1,9.08,9.08,0,0,1-.31.87c-.07.2-.46.93-.53,1.07s-.33,1-.4,1.15-.33.53-.33.53l-.13.56a3.51,3.51,0,0,0-.36.63,5.56,5.56,0,0,1-.4,1.19,15,15,0,0,0-.89,2.12c-.13.5-.37,1.22-.43,1.39s-.43.76-.5,1-.36,1.19-.46,1.39a3.76,3.76,0,0,0-.36,1,3.73,3.73,0,0,1-.36,1c-.17.36-.36,1-.46,1.23s-.23.39-.26.53-.07.5-.1.6-.1.27-.1.27c-.17.08-9.08,3.91-10.33,4.5l-10.86,5.15c-.56.26-1.31.84-1.86.47a6.8,6.8,0,0,1-1.85-2.41,8.77,8.77,0,0,1-.86-2.91c-.08-1.14.4-1.35,2.07-2.32.82-.48,7.33-3.91,9.41-5Z" transform="translate(-192.64 -48.99)" fill="#ef3e42" stroke="#ef3e42" stroke-width="0.23"/></svg>