<svg xmlns="http://www.w3.org/2000/svg" viewBox="0 0 83.2 63.05"><defs><style>.cls-1{fill:#ef3e42;stroke:#ef3e42;stroke-width:0.23px;}</style></defs><title>Asset 1</title><g id="Layer_2" data-name="Layer 2"><g id="Layer_1-2" data-name="Layer 1"><path class="cls-1" d="M22.92,54.86c.62-.37,2-1.11,2.17-1.21s.43-.14.43-.06c0,.32,0,1,.43,1.12.12,0,.42-.1.47,0s.16.17.2.24.24,0,.29.07,0,.24.05.31.3-.07.4-.05a.27.27,0,0,1,.19.36c-.05.22.09.38.44.09.18-.15.19-.07.35-.15a.31.31,0,0,1,.31,0,1,1,0,0,0,.27.22c.15.06.31,0,.4,0s.13.25.25.27.23-.21.31-.14-.18.53.09.61.2-.08.32-.09.18-.16.28-.16.17.12.3.05l.28-.15c.14-.09.28,0,.37-.11s0-.3.31-.25,0,.34.08.45.35,0,.43,0a.71.71,0,0,0,.37-.39c.07-.16.31-.71.41-.86s.35-.73.48-.93.67-1,.72-1.17a2.6,2.6,0,0,1,.29-.42c0-.1.15-.43.28-.69s.5-.8.53-.9.32-.74.42-.94.45-.65.53-.87.31-.67.31-.67l.25-.41s.08-.19.2-.43.46-.78.56-1a6.67,6.67,0,0,1,.38-.57l.22-.48.17-.36s.13-.43.19-.55.3-.4.37-.54.26-.82.36-1,.58-1.06.63-1.23.55-1.06.6-1.24a3,3,0,0,1,.13-.55,4.71,4.71,0,0,0,.3-.5l.41-1c0-.11.09-.33.22-.33s.23.14.31.26.3.12.42.24a5.69,5.69,0,0,1,.51.59c0,.07.23.09.28.15s.08.23.15.27a1.86,1.86,0,0,1,.46.36,2,2,0,0,0,.24.37,2.76,2.76,0,0,1,.51.39c.05.1.59.76.66.88s.12.31.17.4.25.2.26.28a2.46,2.46,0,0,0,.08.46c.05.09.29.19.32.27a2.24,2.24,0,0,0,.18.44c.05.06.15.12.18.19s.07.43.12.49a2.92,2.92,0,0,1,.26.47c.06.11.22.33.25.41s0,.42.09.53.18.37.19.43,0,.27,0,.27l.14.31a1.86,1.86,0,0,1,.15.43,2.48,2.48,0,0,0,0,.33c0,.09.15.3.15.37a3.2,3.2,0,0,0,.19.44,1.45,1.45,0,0,0,0,.42,2,2,0,0,1,.18.4,2,2,0,0,1-.05.29l.08.14s-.05.18,0,.24,0,.22,0,.27a2.53,2.53,0,0,1,.18.4c-.1.11-7,3.31-10,4.69-4.26,2-13.13,6.44-14.08,7s-1.53.86-1.76.74a4.61,4.61,0,0,1-2-2.65,7.52,7.52,0,0,1-.46-3.08A1.1,1.1,0,0,1,20.85,56Z"/><path class="cls-1" d="M10.64,30.39c0,.08.18.06.28.09s.17.12.24.13.16,0,.2,0,.09.19.15.29.1.26.2.3.23,0,.27.11,0,.25,0,.38c.19.33,0,1.24.19,1.31a1.2,1.2,0,0,0,.84-.25,3.31,3.31,0,0,1,.56-.49,6.32,6.32,0,0,1,1-.43c.24,0,.36-.45.6-.47s.15-.21.31-.27.48-.24.58-.14a.83.83,0,0,0,.29.23c.18.07.38,0,.41.18s.5,0,.5,0,.55-.35.78-.45.85-.42.85-.42l.68-.35c7.47-3.58,13.35-5.56,18.75-7.65,8.41-3.26,23-7,25.73-7.69.29-.07.94-.17,1-.21a.43.43,0,0,0,.27-.35c.07-.26-.13-.63-.13-.76s.3-.66.33-.89a.23.23,0,0,0-.2-.27,1.6,1.6,0,0,0,0-.5c-.06-.21-.43-.39-.49-.56s0-.66-.07-.83a.83.83,0,0,0-.27-.29.31.31,0,0,0,0-.24.2.2,0,0,0-.2-.13,1.93,1.93,0,0,0,0-.43c0-.11-.2-.2-.2-.2s-.2-.13-.2-.26a.31.31,0,0,0-.13-.3,2.22,2.22,0,0,0-.5-.1,1.21,1.21,0,0,0-.49-.07,3.56,3.56,0,0,1-.7.27,3.85,3.85,0,0,1-.86,0c-.2,0-.43.17-.67.23-2.25.59-12.58,3.6-20.2,6.46A213.32,213.32,0,0,0,19.73,24.6c-3.9,2-6,3.2-6.84,3.73a5.51,5.51,0,0,0-1,.73c-.11.2-.25.51-.5.55s-.27.21-.37.24a.88.88,0,0,0-.35.24A.24.24,0,0,0,10.64,30.39Z"/><path class="cls-1" d="M42.8,25.77c-.34-.2-.22-.4.18-.57,2.46-1.05,8.68-3.27,12.25-4.4,3.05-1,11.46-3.71,13.8-4.38.57-.17.79-.16,1,.1a11.9,11.9,0,0,1,1.84,2.72,14.53,14.53,0,0,1,1.18,3.49c.14.69-.18.81-.56,1-2.6,1.17-9,4-11.7,5.24s-7.39,3.53-9,4.34c-.69.35-.57.49-1,0-.14-.16-.36-.53-.43-.63s-1-.89-1.06-1-.59-.7-.73-.8-.56-.69-.69-.76a2.32,2.32,0,0,1-.46-.27,4.48,4.48,0,0,0-.37-.38,2.64,2.64,0,0,1-.32-.29l-.31-.29-.26-.29a1.65,1.65,0,0,0-.4-.37,1.41,1.41,0,0,1-.47-.43,5,5,0,0,0-.86-.93l-1-.67A6.15,6.15,0,0,0,42.8,25.77Z"/><path class="cls-1" d="M52.28,34.85c-.25-.26.07-.29.37-.41C53.73,34,60.22,32,65.86,30.51s13.76-3.17,15-3.41a.72.72,0,0,1,1,.39A13,13,0,0,1,83,30.86a9,9,0,0,1-.13,3.71c-.12.34-.58.36-1.68.66-.66.18-3.46.9-4.61,1.23-1.33.39-4.84,1.4-6.13,1.84-1.6.55-3.71,1.24-3.71,1.24l-11.16.19a3.39,3.39,0,0,0-.27-.82c-.1-.06-.26-.43-.36-.53a1.91,1.91,0,0,1-.23-.46s-.1-.4-.2-.46-.34-.64-.44-.71a2.66,2.66,0,0,1-.42-.49,2,2,0,0,0-.33-.43,6.43,6.43,0,0,0-.5-.46C52.65,35.3,52.54,35.1,52.28,34.85Z"/><path class="cls-1" d="M38.78,13.32c-.32,0-.6,0-.67-.08s0-.15-.08-.21a.29.29,0,0,0-.28,0,.33.33,0,0,1-.15.08c-.11,0-.54-.11-.69-.06a1.23,1.23,0,0,1-.57,0c-.1-.06-.12-.35-.31-.42a1.45,1.45,0,0,1-.51-.39c-.1-.17-.36-.43-.41-.56s-.14-.32-.18-.42a2.38,2.38,0,0,0-.2-.39c-.06-.07-.15-.14-.21-.21a4,4,0,0,1-.19-.41c0-.05-.11-.15-.15-.23s0-.17-.07-.26-.15-.23-.18-.31a7.48,7.48,0,0,1,0-1.12,8.53,8.53,0,0,1,0-1c0-.18.14-.35.18-.54s.27-.79.33-1.08a9.61,9.61,0,0,1,.29-1,7.26,7.26,0,0,1,.37-.85c.1-.16.47-.72.62-.9a11.79,11.79,0,0,1,1-1c.16-.12.53-.4.66-.48l.7-.49a.7.7,0,0,1,.3-.07l.16-.16a1.15,1.15,0,0,1,.18-.16A.58.58,0,0,1,39,.49a.68.68,0,0,1,.5-.13c.11,0,.19-.18.29-.2a1.14,1.14,0,0,1,.51,0,.43.43,0,0,0,.31.15c.19,0,.37,0,.44,0s.21.16.29.18a8.3,8.3,0,0,1,1.1,1.07,1.17,1.17,0,0,1,.08.25,1,1,0,0,1,.25.4c0,.18.22.23.24.49s.31.29.39.61c0,.08.06.39.08.44s.1.07.13.18a1.08,1.08,0,0,1,.05.41,5.68,5.68,0,0,1,.21,1,3.73,3.73,0,0,1-.16.88c-.07.24,0,.68-.07.87s-.19.63-.21.77A12.63,12.63,0,0,1,43,9c-.06.1-.28.52-.38.65s-.86,1.19-1,1.33-.47.39-.54.49-.17.31-.26.46-.36.06-.46.24-.4.29-.45.43a1.21,1.21,0,0,1-.32.46A1.59,1.59,0,0,1,38.78,13.32Z"/><path class="cls-1" d="M16.47,46s-3.27,1.1-4.57,1.57-2.59.91-3.5,1.29c-1.11.45-3.06,1.25-3.53,1.41-.72.25-1,.1-1.23-.33a11.44,11.44,0,0,1-1.31-4.66A1.43,1.43,0,0,1,3,44.19C3.38,44,4.33,43.4,5.09,43c1.46-.84,6.48-3.51,9.46-5.06,3.17-1.64,8.16-4,10.84-5.38s7.09-3.41,7.62-3.64a5.52,5.52,0,0,1,1.35-.5c.27,0,.17.13.17.23s-.09.14-.12.34a4.38,4.38,0,0,1-.08.62c-.06.2-.24.39-.27.52a2.29,2.29,0,0,1-.19.77,6.8,6.8,0,0,0-.71,1.52,6.85,6.85,0,0,1-.42,1.3,5.15,5.15,0,0,0-.44,1c0,.19-.25.67-.32.86s-.46.94-.53,1.07-.33,1-.4,1.15a5.45,5.45,0,0,1-.33.53l-.13.57a3.52,3.52,0,0,0-.36.63,5.93,5.93,0,0,1-.4,1.19,16.25,16.25,0,0,0-.9,2.12c-.13.49-.36,1.22-.43,1.39s-.43.76-.49,1-.37,1.19-.47,1.39a3.76,3.76,0,0,0-.36,1,3.55,3.55,0,0,1-.37,1c-.16.37-.36,1-.46,1.23s-.23.39-.26.52-.07.51-.1.6l-.1.27c-.17.08-9.08,3.91-10.34,4.5L4.69,60.75c-.56.26-1.31.84-1.85.47A6.72,6.72,0,0,1,1,58.82,8.91,8.91,0,0,1,.12,55.9c-.08-1.14.4-1.35,2.07-2.32.82-.47,7.33-3.9,9.41-5Z"/></g></g></svg>